<svg width="1000" height="1000" viewBox="0 0 1000 1000" fill="none" xmlns="http://www.w3.org/2000/svg">
<rect width="1000" height="1000" rx="500" fill="#3730A3"/>
<path d="M557.857 537.741L557.866 537.732C626.209 464.929 718.091 459.212 743.274 459.089C746.908 459.071 749.733 462.151 749.7 466.205C749.5 492.668 743.513 585.732 672.733 655.058L672.732 655.058L672.724 655.067C600.674 731.736 529.365 731.71 500.95 731.7C500.628 731.7 500.311 731.7 500 731.7C499.692 731.7 499.379 731.7 499.06 731.7C470.651 731.71 399.317 731.735 327.276 655.067L327.276 655.067L327.267 655.058C256.496 585.741 250.5 492.668 250.3 466.205L250.3 466.205C250.267 462.151 253.092 459.071 256.726 459.089C281.909 459.212 373.791 464.929 442.134 537.732L442.134 537.732L442.143 537.741C470.854 565.812 488.403 597.712 499.719 627.621L500 628.363L500.281 627.621C511.597 597.712 529.146 565.812 557.857 537.741L557.857 537.741ZM506.39 309.764L506.391 309.765C545.368 346.834 575.947 406.029 590.227 472.781C572.319 484.042 554.576 497.959 538.041 515.573C523.82 529.467 511.063 545.407 499.983 563.142C488.85 545.343 475.795 529.072 461.1 514.682C444.886 497.408 427.456 483.729 409.817 472.639C424.123 405.944 454.702 346.805 493.662 309.765C497.122 306.478 502.939 306.479 506.39 309.764Z" fill="white" stroke="#FC6D6D" stroke-width="0.6"/>
</svg>
